<svg width="246" height="49" viewBox="0 0 246 49" fill="none" xmlns="http://www.w3.org/2000/svg">
<path d="M19.328 36.324C16.76 36.324 14.564 35.796 12.74 34.74C10.916 33.684 9.512 32.184 8.528 30.24C7.568 28.272 7.088 25.956 7.088 23.292C7.088 21.3 7.364 19.512 7.916 17.928C8.468 16.32 9.26 14.952 10.292 13.824C11.348 12.672 12.632 11.796 14.144 11.196C15.68 10.596 17.408 10.296 19.328 10.296C20.744 10.296 22.1 10.488 23.396 10.872C24.716 11.256 25.856 11.808 26.816 12.528C27.224 12.792 27.488 13.116 27.608 13.5C27.752 13.86 27.776 14.208 27.68 14.544C27.608 14.88 27.452 15.168 27.212 15.408C26.972 15.624 26.66 15.744 26.276 15.768C25.916 15.792 25.52 15.66 25.088 15.372C24.296 14.772 23.42 14.328 22.46 14.04C21.5 13.752 20.492 13.608 19.436 13.608C17.612 13.608 16.076 13.992 14.828 14.76C13.58 15.504 12.632 16.596 11.984 18.036C11.336 19.476 11.012 21.228 11.012 23.292C11.012 25.356 11.336 27.12 11.984 28.584C12.632 30.024 13.58 31.128 14.828 31.896C16.076 32.64 17.612 33.012 19.436 33.012C20.492 33.012 21.5 32.868 22.46 32.58C23.444 32.268 24.368 31.812 25.232 31.212C25.664 30.948 26.048 30.828 26.384 30.852C26.744 30.876 27.044 30.996 27.284 31.212C27.524 31.428 27.68 31.704 27.752 32.04C27.848 32.352 27.836 32.688 27.716 33.048C27.62 33.384 27.392 33.672 27.032 33.912C26.048 34.704 24.884 35.304 23.54 35.712C22.196 36.12 20.792 36.324 19.328 36.324ZM35.9521 36.252C35.3521 36.252 34.8841 36.084 34.5481 35.748C34.2361 35.412 34.0801 34.944 34.0801 34.344V12.528C34.0801 11.904 34.2481 11.436 34.5841 11.124C34.9201 10.788 35.3881 10.62 35.9881 10.62H44.5921C47.3281 10.62 49.4401 11.268 50.9281 12.564C52.4161 13.86 53.1601 15.696 53.1601 18.072C53.1601 19.608 52.8241 20.928 52.1521 22.032C51.4801 23.136 50.4961 23.976 49.2001 24.552C47.9281 25.128 46.3921 25.416 44.5921 25.416L44.9161 24.912H45.8521C46.8121 24.912 47.6401 25.152 48.3361 25.632C49.0561 26.112 49.7041 26.88 50.2801 27.936L53.3761 33.696C53.6161 34.128 53.7241 34.548 53.7001 34.956C53.7001 35.34 53.5561 35.652 53.2681 35.892C53.0041 36.132 52.6201 36.252 52.1161 36.252C51.5881 36.252 51.1561 36.144 50.8201 35.928C50.5081 35.688 50.2201 35.34 49.9561 34.884L46.1761 27.9C45.6721 26.964 45.0961 26.34 44.4481 26.028C43.8001 25.692 42.9481 25.524 41.8921 25.524H37.8241V34.344C37.8241 34.944 37.6681 35.412 37.3561 35.748C37.0441 36.084 36.5761 36.252 35.9521 36.252ZM37.8241 22.716H43.9801C45.8041 22.716 47.1841 22.332 48.1201 21.564C49.0561 20.796 49.5241 19.656 49.5241 18.144C49.5241 16.656 49.0561 15.528 48.1201 14.76C47.1841 13.992 45.8041 13.608 43.9801 13.608H37.8241V22.716Z" fill="#EA4E48"/>
<path fill-rule="evenodd" clip-rule="evenodd" d="M73.5039 11.8654C73.183 12.3415 70.0133 17.4835 66.4601 23.2919L60 33.8535L61.6927 34.925C63.3306 35.9615 63.56 35.9969 68.7103 35.9985L74.0348 36L75.1309 34.2154C76.1859 32.4981 76.2512 32.4588 76.8612 33.1758C77.2099 33.5854 78.2177 34.3885 79.1005 34.9604C80.6376 35.9558 80.9243 36 85.8529 36C89.1811 36 91 35.8573 91 35.5958C91 35.3738 89.4871 32.7342 87.6375 29.7304C85.788 26.7269 83.2172 22.4519 81.9248 20.2308C80.632 18.0096 79.186 15.5481 78.7111 14.7604C77.9927 13.5685 74.9681 11 74.2832 11C74.1755 11 73.8248 11.3892 73.5039 11.8654ZM76.0843 14.4958C76.0843 14.6777 74.3452 17.6435 72.22 21.0862C70.0947 24.5292 67.4244 28.8608 66.2863 30.7115C65.1483 32.5627 64.1208 34.0731 64.003 34.0685C63.8853 34.0638 63.3975 33.7608 62.9194 33.3954L62.0499 32.7308L67.0579 24.6538C69.8121 20.2115 72.5517 15.7727 73.1455 14.79C74.1892 13.0631 74.2566 13.0227 75.1547 13.5842C75.6659 13.9038 76.0843 14.3142 76.0843 14.4958ZM82.7299 24.0769C85.1277 28.2019 87.5202 32.2296 88.0471 33.0273C89.2355 34.8262 89.0505 34.9173 84.5161 34.7665L81.1234 34.6538L79.5109 31.8038C78.624 30.2365 77.7242 28.9385 77.5114 28.9192C77.1131 28.8835 76.2948 29.9677 74.3811 33.0669L73.2822 34.8462H69.1949H65.1072L65.6946 33.9808C66.0175 33.505 67.4228 31.2115 68.8172 28.8846C72.0494 23.4912 76.4959 16.3377 77.0103 15.7031C77.5191 15.0758 77.3772 14.8681 82.7299 24.0769ZM78.4902 32.7081C78.4833 32.9323 78.2112 32.7792 77.8855 32.3688C77.5602 31.9581 77.2994 31.4388 77.3066 31.215C77.3135 30.9908 77.5856 31.1438 77.9113 31.5542C78.2366 31.965 78.4974 32.4842 78.4902 32.7081Z" fill="#F0B19E"/>
<path d="M99.932 36.252C99.308 36.252 98.816 36.084 98.456 35.748C98.12 35.412 97.952 34.92 97.952 34.272V12.636C97.952 11.988 98.12 11.496 98.456 11.16C98.816 10.8 99.32 10.62 99.968 10.62H112.784C113.312 10.62 113.696 10.752 113.936 11.016C114.2 11.256 114.332 11.616 114.332 12.096C114.332 12.6 114.2 12.984 113.936 13.248C113.696 13.512 113.312 13.644 112.784 13.644H101.696V21.744H112.064C112.544 21.744 112.916 21.876 113.18 22.14C113.468 22.38 113.612 22.74 113.612 23.22C113.612 23.724 113.468 24.108 113.18 24.372C112.916 24.636 112.544 24.768 112.064 24.768H101.696V34.272C101.696 35.592 101.108 36.252 99.932 36.252ZM127.89 36.252C127.29 36.252 126.822 36.084 126.486 35.748C126.174 35.412 126.018 34.944 126.018 34.344V13.752H118.386C117.882 13.752 117.486 13.62 117.198 13.356C116.91 13.068 116.766 12.672 116.766 12.168C116.766 11.664 116.91 11.28 117.198 11.016C117.486 10.752 117.882 10.62 118.386 10.62H137.358C137.886 10.62 138.294 10.752 138.582 11.016C138.87 11.28 139.014 11.664 139.014 12.168C139.014 12.672 138.87 13.068 138.582 13.356C138.294 13.62 137.886 13.752 137.358 13.752H129.726V34.344C129.726 34.944 129.57 35.412 129.258 35.748C128.97 36.084 128.514 36.252 127.89 36.252ZM145.65 36C145.002 36 144.498 35.832 144.138 35.496C143.802 35.136 143.634 34.632 143.634 33.984V12.636C143.634 11.988 143.802 11.496 144.138 11.16C144.498 10.8 145.002 10.62 145.65 10.62H158.79C159.294 10.62 159.678 10.752 159.942 11.016C160.206 11.256 160.338 11.616 160.338 12.096C160.338 12.6 160.206 12.984 159.942 13.248C159.678 13.512 159.294 13.644 158.79 13.644H147.234V21.6H157.998C158.526 21.6 158.91 21.732 159.15 21.996C159.414 22.26 159.546 22.632 159.546 23.112C159.546 23.616 159.414 24 159.15 24.264C158.91 24.504 158.526 24.624 157.998 24.624H147.234V32.976H158.79C159.294 32.976 159.678 33.108 159.942 33.372C160.206 33.636 160.338 34.008 160.338 34.488C160.338 34.992 160.206 35.376 159.942 35.64C159.678 35.88 159.294 36 158.79 36H145.65ZM168.649 36C168.001 36 167.497 35.832 167.137 35.496C166.801 35.136 166.633 34.632 166.633 33.984V12.636C166.633 11.988 166.801 11.496 167.137 11.16C167.497 10.8 168.001 10.62 168.649 10.62H175.597C179.773 10.62 182.989 11.712 185.245 13.896C187.525 16.056 188.665 19.188 188.665 23.292C188.665 25.332 188.377 27.144 187.801 28.728C187.225 30.312 186.373 31.644 185.245 32.724C184.141 33.78 182.785 34.596 181.177 35.172C179.569 35.724 177.709 36 175.597 36H168.649ZM170.377 32.868H175.381C176.965 32.868 178.333 32.676 179.485 32.292C180.661 31.884 181.645 31.284 182.437 30.492C183.229 29.7 183.817 28.704 184.201 27.504C184.585 26.304 184.777 24.9 184.777 23.292C184.777 20.1 183.985 17.712 182.401 16.128C180.841 14.544 178.501 13.752 175.381 13.752H170.377V32.868ZM197.484 36C196.836 36 196.332 35.832 195.972 35.496C195.636 35.136 195.468 34.632 195.468 33.984V12.636C195.468 11.988 195.636 11.496 195.972 11.16C196.332 10.8 196.836 10.62 197.484 10.62H206.052C207.804 10.62 209.292 10.884 210.516 11.412C211.764 11.94 212.712 12.696 213.36 13.68C214.032 14.664 214.368 15.852 214.368 17.244C214.368 18.78 213.912 20.076 213 21.132C212.088 22.188 210.852 22.896 209.292 23.256V22.716C211.068 22.956 212.46 23.628 213.468 24.732C214.476 25.812 214.98 27.228 214.98 28.98C214.98 31.236 214.236 32.976 212.748 34.2C211.26 35.4 209.172 36 206.484 36H197.484ZM199.068 33.12H206.052C207.852 33.12 209.184 32.772 210.048 32.076C210.912 31.356 211.344 30.276 211.344 28.836C211.344 27.396 210.912 26.328 210.048 25.632C209.184 24.936 207.852 24.588 206.052 24.588H199.068V33.12ZM199.068 21.708H205.476C207.204 21.708 208.512 21.36 209.4 20.664C210.288 19.968 210.732 18.948 210.732 17.604C210.732 16.26 210.288 15.24 209.4 14.544C208.512 13.848 207.204 13.5 205.476 13.5H199.068V21.708ZM229.271 36.252C228.671 36.252 228.203 36.084 227.867 35.748C227.555 35.412 227.399 34.932 227.399 34.308V22.896L228.227 25.272L219.335 12.924C219.071 12.564 218.951 12.192 218.975 11.808C218.999 11.4 219.155 11.064 219.443 10.8C219.755 10.512 220.163 10.368 220.667 10.368C221.051 10.368 221.399 10.464 221.711 10.656C222.047 10.848 222.359 11.148 222.647 11.556L229.775 21.456H228.911L236.039 11.556C236.351 11.124 236.651 10.824 236.939 10.656C237.227 10.464 237.587 10.368 238.019 10.368C238.523 10.368 238.907 10.5 239.171 10.764C239.459 11.004 239.603 11.328 239.603 11.736C239.627 12.12 239.483 12.528 239.171 12.96L230.351 25.272L231.107 22.896V34.308C231.107 35.604 230.495 36.252 229.271 36.252Z" fill="#EA4E48"/>
</svg>
