<svg width="24" height="24" viewBox="0 0 24 24" fill="none" xmlns="http://www.w3.org/2000/svg">
<path d="M6.28009 14.9399L9.69008 11.5299C9.98556 11.2372 9.9878 10.7604 9.69509 10.4649C9.40237 10.1695 8.92556 10.1672 8.63008 10.4599L4.00009 15.1499C3.93199 15.2229 3.87777 15.3076 3.84009 15.3999C3.7701 15.5835 3.7701 15.7864 3.84009 15.9699C3.87777 16.0623 3.93199 16.147 4.00009 16.2199L8.69008 20.9099C8.83293 21.0471 9.02209 21.1256 9.22009 21.1299C9.41893 21.1298 9.60957 21.0506 9.75008 20.9099C9.89303 20.7707 9.97366 20.5795 9.97366 20.3799C9.97366 20.1804 9.89303 19.9892 9.75008 19.8499L6.31009 16.4399H15.3101C15.7243 16.4399 16.0601 16.1042 16.0601 15.6899C16.0601 15.2757 15.7243 14.9399 15.3101 14.9399H6.28009Z" fill="white"/>
<path d="M20.1901 5.99995C20.1404 5.91588 20.076 5.84138 20.0001 5.77995L15.3401 1.08995C15.0473 0.797492 14.5729 0.797492 14.2801 1.08995C14.1371 1.22923 14.0565 1.42036 14.0565 1.61995C14.0565 1.81953 14.1371 2.01066 14.2801 2.14995L17.6901 5.56995H8.69009C8.27587 5.56995 7.94009 5.90573 7.94009 6.31995C7.94009 6.73416 8.27587 7.06995 8.69009 7.06995H17.6901L14.2801 10.4799C14.1371 10.6192 14.0565 10.8104 14.0565 11.0099C14.0565 11.2095 14.1371 11.4007 14.2801 11.5399C14.4206 11.6806 14.6112 11.7598 14.8101 11.7599C15.0081 11.7556 15.1972 11.6771 15.3401 11.5399L20.0001 6.84995C20.0682 6.77704 20.1224 6.69232 20.1601 6.59995C20.2477 6.41144 20.2584 6.19625 20.1901 5.99995Z" fill="white"/>
</svg>
