<svg width="40" height="40" viewBox="0 0 40 40" fill="none" xmlns="http://www.w3.org/2000/svg">
<path fill-rule="evenodd" clip-rule="evenodd" d="M5.78345 7.08337H7.45011L7.53345 7.10004C9.84371 7.14485 11.8623 8.67228 12.5334 10.8834L12.8668 12.0334H30.2501C31.7852 12.0404 33.2428 12.7084 34.2501 13.8667C35.2546 15.0323 35.6991 16.579 35.4668 18.1L34.4668 25C34.1337 27.6449 31.899 29.6376 29.2334 29.6667H19.4334C17.0923 29.658 15.0305 28.1235 14.3501 25.8834L10.1334 11.6667C9.81055 10.447 8.71179 9.59393 7.45011 9.58337H5.78345C5.09309 9.58337 4.53345 9.02373 4.53345 8.33337C4.53345 7.64302 5.09309 7.08337 5.78345 7.08337ZM16.7501 25.0834C17.1039 26.27 18.1952 27.0834 19.4334 27.0834H29.2334C30.6129 27.0684 31.7811 26.0621 32.0001 24.7L33.0001 17.7834C33.1363 16.9783 32.9143 16.1538 32.3922 15.526C31.87 14.8982 31.0999 14.5296 30.2834 14.5167H13.6168L16.7501 25.0834Z" fill="white"/>
<path d="M19.0501 31.6667C18.1296 31.6667 17.3834 32.4129 17.3834 33.3334C17.3834 34.2538 18.1296 35 19.0501 35C19.9706 35 20.7168 34.2538 20.7168 33.3334C20.7168 32.4129 19.9706 31.6667 19.0501 31.6667Z" fill="white"/>
<path d="M29.0501 31.6667C28.1296 31.6667 27.3834 32.4129 27.3834 33.3334C27.3834 34.2538 28.1296 35 29.0501 35C29.9706 35 30.7168 34.2538 30.7168 33.3334C30.7168 32.4129 29.9706 31.6667 29.0501 31.6667Z" fill="white"/>
</svg>
