<svg width="24" height="24" viewBox="0 0 24 24" fill="none" xmlns="http://www.w3.org/2000/svg">
<path fill-rule="evenodd" clip-rule="evenodd" d="M22.29 7.80009V7.93009C22.2717 8.4302 22.0849 8.90945 21.76 9.29009L15.7 16.1601L12.91 19.3301C12.4938 19.7992 11.8972 20.0685 11.27 20.0701C11.1304 20.0848 10.9896 20.0848 10.85 20.0701H10.79C10.6756 20.0535 10.5644 20.0198 10.46 19.9701H10.35C10.2561 19.9314 10.1658 19.8845 10.08 19.8301L9.98004 19.7601L9.79004 19.6201L8.41004 21.0001C8.14529 21.2644 7.784 21.4089 7.41004 21.4001C7.14121 21.3905 6.88083 21.3037 6.66004 21.1501C6.40981 21.4043 6.08311 21.5694 5.73004 21.6201L3.22004 21.9101H3.07004C2.8105 21.9143 2.55949 21.8175 2.37004 21.6401L1.91004 21.1801C1.48912 20.6271 1.58197 19.84 2.12004 19.4001L3.52004 18.0001C3.13319 17.452 3.19649 16.7052 3.67004 16.2301L5.05004 14.8501C5.00333 14.7891 4.95993 14.7257 4.92004 14.6601C4.88689 14.6225 4.85679 14.5824 4.83004 14.5401L4.63004 14.1401C4.55004 14.0501 4.55004 13.9601 4.55004 13.8601V13.7201C4.53979 13.6137 4.53979 13.5065 4.55004 13.4001V12.9201C4.55619 12.904 4.55619 12.8862 4.55004 12.8701C4.65219 12.4261 4.89403 12.0265 5.24004 11.7301L10.55 7.05009L15.27 2.90009C15.6833 2.54048 16.2122 2.34169 16.76 2.34009C17.3535 2.34106 17.9222 2.5786 18.34 3.00009L21.68 6.28009C21.9864 6.58335 22.1983 6.96891 22.29 7.39009C22.2854 7.40981 22.2854 7.43036 22.29 7.45009C22.2998 7.56655 22.2998 7.68363 22.29 7.80009ZM11.24 18.6301C11.4406 18.6319 11.6314 18.5439 11.76 18.3901L14.48 15.2601L20.58 8.34009C20.8442 8.05909 20.8442 7.62109 20.58 7.34009L17.28 4.04009C17.1395 3.8994 16.9489 3.82026 16.75 3.82009C16.5734 3.81917 16.4025 3.88323 16.27 4.00009L11.57 8.17009L6.15004 12.9501C6.09031 13.0126 6.03981 13.0833 6.00004 13.1601V13.2101C5.986 13.2693 5.986 13.3309 6.00004 13.3901C5.9849 13.4694 5.9849 13.5508 6.00004 13.6301C6.05037 13.7036 6.11942 13.7622 6.20004 13.8001C6.19308 13.8229 6.19308 13.8473 6.20004 13.8701L10.75 18.4701C10.8261 18.539 10.9142 18.5933 11.01 18.6301C11.0697 18.6396 11.1304 18.6396 11.19 18.6301H11.24ZM3.25004 20.3901L4.11004 19.5401L4.79004 20.2101L3.25004 20.3901ZM4.82004 17.2101L7.41004 19.8401L8.71004 18.5101L6.11004 15.9101L4.82004 17.2101Z" fill="#2B2D42"/>
<path d="M16.35 7.21009L11.85 11.7101C11.5576 12.0029 11.5576 12.4773 11.85 12.7701C11.9899 12.9117 12.181 12.991 12.38 12.9901C12.5798 12.9946 12.7722 12.9147 12.91 12.7701L17.41 8.27009C17.553 8.1308 17.6336 7.93968 17.6336 7.74009C17.6336 7.5405 17.553 7.34938 17.41 7.21009C17.1172 6.91763 16.6429 6.91763 16.35 7.21009Z" fill="#2B2D42"/>
</svg>
