<svg width="30" height="28" viewBox="0 0 30 28" fill="none" xmlns="http://www.w3.org/2000/svg">
<path d="M17.7251 11.0634H19.1834C19.3716 11.0634 19.5519 10.9912 19.6836 10.8629C19.8153 10.7346 19.8873 10.5611 19.8834 10.3815V8.15498C19.8847 7.80676 19.6054 7.51603 19.2417 7.48701C19.2417 7.48701 18.2063 7.40352 16.9376 7.40352C13.8167 7.40352 12.0959 9.17084 12.0959 12.3715V14.8346H9.22298C9.03612 14.8308 8.85573 14.8999 8.72357 15.026C8.59142 15.1521 8.51896 15.3243 8.52298 15.5026V17.5343C8.51896 17.7126 8.59142 17.8848 8.72357 18.0109C8.85573 18.137 9.03612 18.2061 9.22298 18.2023H12.0521V26.0787H16.3105V18.2023H18.8771C19.2296 18.1989 19.5268 17.9507 19.5771 17.6178L19.8396 15.5861C19.8664 15.3938 19.8023 15.2001 19.6646 15.0573C19.5311 14.9148 19.34 14.8337 19.1396 14.8346H16.3105V12.455C16.3101 11.7025 16.9368 11.086 17.7251 11.0634Z" fill="#F0B19E"/>
<path fill-rule="evenodd" clip-rule="evenodd" d="M0.137573 13.8466C0.137573 6.23021 6.60799 0.0559082 14.5897 0.0559082C18.4226 0.0559082 22.0985 1.50885 24.8088 4.09511C27.5191 6.68136 29.0417 10.1891 29.0417 13.8466C29.0417 21.463 22.5713 27.6373 14.5897 27.6373C6.60799 27.6373 0.137573 21.463 0.137573 13.8466ZM26.8542 13.8466C26.8542 7.38304 21.3632 2.1433 14.5897 2.1433C7.82276 2.1586 2.3411 7.38939 2.32507 13.8466C2.32507 20.3101 7.81611 25.5499 14.5897 25.5499C21.3632 25.5499 26.8542 20.3101 26.8542 13.8466Z" fill="#F0B19E"/>
</svg>
