<svg width="31" height="32" viewBox="0 0 31 32" fill="none" xmlns="http://www.w3.org/2000/svg">
<path fill-rule="evenodd" clip-rule="evenodd" d="M10.3333 2.66675H20.2792C24.5594 2.66675 28.0292 6.24847 28.0292 10.6667V20.9334C28.0292 25.3517 24.5594 28.9334 20.2792 28.9334H10.3333C6.05314 28.9334 2.58334 25.3517 2.58334 20.9334V10.6667C2.58334 6.24847 6.05314 2.66675 10.3333 2.66675ZM26.0917 10.6667C26.0846 7.35608 23.4864 4.67408 20.2792 4.66675H10.3333C7.12613 4.67408 4.52795 7.35608 4.52084 10.6667V20.9334C4.52795 24.2441 7.12613 26.9261 10.3333 26.9334H20.2792C23.4864 26.9261 26.0846 24.2441 26.0917 20.9334V10.6667Z" fill="#F0B19E"/>
<path fill-rule="evenodd" clip-rule="evenodd" d="M9.75209 15.8001C9.7592 12.6367 12.2417 10.0741 15.3063 10.0667C18.3708 10.0741 20.8533 12.6367 20.8604 15.8001C20.8604 18.9665 18.3737 21.5334 15.3063 21.5334C12.2388 21.5334 9.75209 18.9665 9.75209 15.8001ZM18.9229 15.8001C18.9229 13.7382 17.3037 12.0667 15.3063 12.0667C13.3118 12.0741 11.6967 13.7413 11.6896 15.8001C11.6896 17.8619 13.3088 19.5334 15.3063 19.5334C17.3037 19.5334 18.9229 17.8619 18.9229 15.8001Z" fill="#F0B19E"/>
<path d="M20.0338 8.67342C20.0338 7.87444 20.6612 7.22675 21.4352 7.22675C22.2092 7.22675 22.8367 7.87444 22.8367 8.67342C22.8367 9.47239 22.2092 10.1201 21.4352 10.1201C20.6612 10.1201 20.0338 9.47239 20.0338 8.67342Z" fill="#F0B19E"/>
</svg>
