<svg width="33" height="33" viewBox="0 0 33 33" fill="none" xmlns="http://www.w3.org/2000/svg">
<path fill-rule="evenodd" clip-rule="evenodd" d="M10.3927 11.0001C8.96308 11.012 7.53313 11.0094 6.10338 11.0015C5.69941 10.9991 5.49927 11.1385 5.5 11.5983C5.50895 16.7252 5.50548 21.8521 5.50653 26.9789C5.50663 27.1742 5.47673 27.3886 5.7171 27.4775C5.72626 27.5088 10.7665 27.5068 10.7801 27.4757C11.0454 27.3724 10.9919 27.1319 10.992 26.924C10.9943 21.8333 10.9902 16.7424 11 11.6517C11.0007 11.1897 10.8426 10.9962 10.3927 11.0001Z" fill="#F0B19E"/>
<path fill-rule="evenodd" clip-rule="evenodd" d="M8.24995 4.125C6.73126 4.125 5.5 5.35626 5.5 6.87495C5.5 8.39383 6.73126 9.625 8.24995 9.625C9.76874 9.625 11 8.39383 11 6.87495C11 5.35626 9.76874 4.125 8.24995 4.125Z" fill="#F0B19E"/>
<path fill-rule="evenodd" clip-rule="evenodd" d="M28.8037 26.7097C28.8069 24.0818 28.8203 21.4538 28.799 18.8261C28.7896 17.6751 28.7483 16.521 28.5064 15.3882C28.1099 13.5309 27.2175 12.0808 25.4449 11.4046C24.2623 10.9536 23.0259 10.9245 21.791 11.0994C20.7536 11.2463 19.798 11.6414 18.9273 12.3759C18.9273 12.1087 18.9264 11.9315 18.9276 11.7545C18.9302 11.357 18.7452 11.1773 18.3641 11.1791C17.0098 11.1854 15.6555 11.1838 14.3011 11.1802C13.9283 11.1791 13.7495 11.3331 13.75 11.7521C13.7572 16.7948 13.7545 21.8375 13.7547 26.8801C13.7547 27.0735 13.7293 27.2793 13.9531 27.3745C13.9767 27.4057 18.8661 27.4174 18.8659 27.3855C19.1866 27.2415 19.088 26.9375 19.0885 26.69C19.093 24.2029 19.0781 21.7156 19.0915 19.2285C19.0956 18.4508 19.1243 17.6651 19.4602 16.9409C19.8583 16.0828 20.6821 15.711 21.8424 15.8632C22.6406 15.9678 23.1502 16.5083 23.3088 17.45C23.3676 17.7979 23.4115 18.1536 23.4135 18.506C23.4291 21.2418 23.4312 23.9775 23.4426 26.7133C23.4437 26.966 23.3679 27.2643 23.6933 27.3912C23.6821 27.4271 28.6053 27.4054 28.6066 27.3706C28.8715 27.2161 28.8034 26.9468 28.8037 26.7097Z" fill="#F0B19E"/>
</svg>
