<svg width="70" height="59" viewBox="0 0 70 59" fill="none" xmlns="http://www.w3.org/2000/svg">
<path fill-rule="evenodd" clip-rule="evenodd" d="M30.4927 2.01923C29.7681 3.13026 22.6106 15.1281 14.5873 28.6812L0 53.3247L3.82229 55.825C7.52077 58.2436 8.03873 58.3262 19.6685 58.3297L31.6916 58.3333L34.1666 54.1692C36.5488 50.1622 36.6963 50.0706 38.0736 51.7435C38.861 52.6992 41.1367 54.5731 43.1302 55.9076C46.6011 58.2301 47.2483 58.3333 58.3775 58.3333C65.8928 58.3333 70 58.0004 70 57.3901C70 56.8723 66.5837 50.7132 62.4073 43.7042C58.2309 36.6962 52.426 26.7212 49.5077 21.5385C46.5884 16.3558 43.3232 10.6122 42.2509 8.77423C40.6287 5.99308 33.7989 0 32.2523 0C32.0093 0 31.2173 0.908205 30.4927 2.01923ZM36.3195 8.15679C36.3195 8.58128 32.3925 15.5014 27.5935 23.5344C22.7944 31.5682 16.7647 41.6751 14.195 45.9936C11.6252 50.313 9.30493 53.8372 9.03913 53.8264C8.77333 53.8156 7.67188 53.1085 6.59228 52.2559L4.6288 50.7051L15.9373 31.859C22.1563 21.4936 28.3426 11.1363 29.6835 8.84333C32.0402 4.81385 32.1922 4.71962 34.2203 6.02987C35.3746 6.77564 36.3195 7.7332 36.3195 8.15679ZM51.3255 30.5128C56.7399 40.1378 62.1424 49.5358 63.3322 51.3971C66.0157 55.5944 65.5979 55.8071 55.359 55.4553L47.698 55.1923L44.0569 48.5423C42.0543 44.8853 40.0225 41.8564 39.5419 41.8115C38.6425 41.7281 36.7946 44.2579 32.4735 51.4895L29.9921 55.641H20.7627H11.5324L12.8587 53.6218C13.5878 52.5117 16.7611 47.1603 19.9097 41.7308C27.2084 29.146 37.2489 12.4546 38.4104 10.9738C39.5592 9.51013 39.2387 9.02551 51.3255 30.5128ZM41.752 50.6522C41.7366 51.1754 41.1221 50.8182 40.3866 49.8606C39.652 48.9022 39.0631 47.6906 39.0794 47.1683C39.0949 46.6451 39.7094 47.0023 40.4449 47.9599C41.1795 48.9183 41.7684 50.1299 41.752 50.6522Z" fill="#F0B19E"/>
</svg>
