<svg width="40" height="40" viewBox="0 0 40 40" fill="none" xmlns="http://www.w3.org/2000/svg">
<path fill-rule="evenodd" clip-rule="evenodd" d="M6.7696 12.7824C9.14661 7.07465 14.716 3.35023 20.8989 3.33371C27.5626 3.29862 33.4877 7.56692 35.5649 13.8987C37.6421 20.2304 35.3968 27.1791 30.0074 31.0982C24.6179 35.0173 17.3154 35.0114 11.9322 31.0837L7.13223 35.8837C6.6442 36.3711 5.8536 36.3711 5.36557 35.8837C4.87814 35.3957 4.87814 34.6051 5.36557 34.117L10.0156 29.467C5.67207 25.0668 4.39259 18.4901 6.7696 12.7824ZM8.99818 23.6153C10.994 28.4247 15.6918 31.5571 20.8989 31.5504V31.4837C27.966 31.4747 33.7031 25.7674 33.7489 18.7004C33.7556 13.4933 30.6232 8.79545 25.8138 6.79966C21.0043 4.80387 15.4661 5.90363 11.7841 9.58561C8.10215 13.2676 7.00239 18.8058 8.99818 23.6153Z" fill="white"/>
</svg>
