<svg width="24" height="24" viewBox="0 0 24 24" fill="none" xmlns="http://www.w3.org/2000/svg">
<path fill-rule="evenodd" clip-rule="evenodd" d="M20.28 3.82004L21.94 8.43004C22.3012 9.32268 22.2119 10.3344 21.7 11.15C21.2644 11.7682 20.6342 12.2224 19.91 12.44V19.24C19.8943 20.0039 19.5756 20.7302 19.0242 21.2591C18.4728 21.788 17.7339 22.0761 16.97 22.06H7.31C6.53665 22.0897 5.78371 21.808 5.21981 21.2779C4.65591 20.7478 4.32818 20.0137 4.31 19.24V12.54C3.60595 12.3788 2.97181 11.9969 2.5 11.45C1.82159 10.6032 1.65334 9.45602 2.06 8.45004L3.71 3.83004C4.09914 2.84475 5.06092 2.20622 6.12 2.23004H17.87C18.9274 2.20169 19.89 2.83675 20.28 3.82004ZM13.3515 20.43H13.36V20.46C13.357 20.4501 13.3541 20.4401 13.3515 20.43ZM13.3515 20.43H10.81C10.8195 20.3537 10.8195 20.2764 10.81 20.2V18.09C10.8274 17.7727 10.9742 17.4765 11.2162 17.2705C11.4581 17.0644 11.774 16.9667 12.09 17C12.7184 16.954 13.2669 17.4222 13.32 18.05V20.19C13.32 20.2711 13.3306 20.3518 13.3515 20.43ZM16.92 20.43H14.81C14.8195 20.3537 14.8195 20.2764 14.81 20.2V18.09C14.7557 16.6175 13.5228 15.4651 12.05 15.51C10.5733 15.4594 9.33426 16.6135 9.28 18.09V20.23C9.27048 20.3064 9.27048 20.3837 9.28 20.46H7.26C6.52339 20.494 5.89774 19.9265 5.86 19.19V12.52C7.19237 12.3189 8.26244 11.3165 8.55 10C8.90221 11.5971 10.3681 12.6976 12 12.59C13.6025 12.6572 15.0225 11.5658 15.37 10C15.6514 11.3993 16.8103 12.4529 18.23 12.6V19.24C18.1688 19.9215 17.6041 20.4475 16.92 20.46V20.43ZM18.92 10.84C19.4501 10.8261 19.9413 10.5582 20.24 10.12V10.15C20.4475 9.80044 20.4736 9.37222 20.31 9.00004L18.66 4.45004C18.5136 4.15246 18.2006 3.97417 17.87 4.00004H6.12C5.8019 3.97095 5.49641 4.13153 5.34 4.41004L3.69 9.00004C3.47556 9.42445 3.51407 9.93277 3.79 10.32C4.03924 10.6263 4.39788 10.8236 4.79 10.87C4.91624 10.8848 5.04376 10.8848 5.17 10.87C5.93946 10.9121 6.6344 10.4127 6.84 9.67004C6.99257 8.82473 7.72116 8.20501 8.58 8.19004C9.44809 8.18963 10.1868 8.82222 10.32 9.68004C10.5236 10.4273 11.2275 10.9259 12 10.87C12.7788 10.9219 13.4827 10.4077 13.67 9.65004C13.8146 8.79867 14.5465 8.17196 15.41 8.16004C16.2749 8.15885 17.0124 8.7862 17.15 9.64004C17.3537 10.3928 18.0621 10.8958 18.84 10.84H18.92Z" fill="#2B2D42"/>
</svg>
