<svg width="40" height="40" viewBox="0 0 40 40" fill="none" xmlns="http://www.w3.org/2000/svg">
<path fill-rule="evenodd" clip-rule="evenodd" d="M23.8167 23.3334C26.4329 23.3864 28.6494 25.2754 29.1167 27.85L29.5 29.75C29.8787 31.3899 29.5065 33.1132 28.4848 34.4507C27.4632 35.7882 25.8984 36.6006 24.2167 36.6667H8.73337C7.04931 36.6066 5.4806 35.7957 4.45768 34.4565C3.43477 33.1174 3.06507 31.3906 3.45004 29.75L3.83337 27.85C4.29343 25.278 6.50441 23.3878 9.1167 23.3334H23.8167ZM24.2167 34.1667C25.0589 34.1591 25.8512 33.7661 26.3667 33.1C27.0275 32.3025 27.28 31.2432 27.05 30.2334L26.6667 28.3334C26.4314 26.926 25.2423 25.876 23.8167 25.8167H9.1167C7.69489 25.8774 6.51135 26.9286 6.28337 28.3334L5.98337 30.25C5.75889 31.2546 6.01111 32.3065 6.6667 33.1C7.16395 33.7437 7.92063 34.1343 8.73337 34.1667H24.2167Z" fill="white"/>
<path fill-rule="evenodd" clip-rule="evenodd" d="M17.3 20H15.6334C11.9515 20 8.9667 17.0153 8.9667 13.3334V8.93335C8.9667 5.84056 11.4739 3.33335 14.5667 3.33335H18.3334C19.8257 3.31998 21.2613 3.90461 22.3197 4.95675C23.3781 6.0089 23.9712 7.44097 23.9667 8.93335V13.3334C23.9667 17.0153 20.9819 20 17.3 20ZM14.5667 5.83335C12.8546 5.83335 11.4667 7.22127 11.4667 8.93335V13.3334C11.4756 15.6179 13.3157 17.4727 15.6 17.5H17.2667C18.3718 17.5 19.4316 17.061 20.213 16.2796C20.9944 15.4982 21.4334 14.4384 21.4334 13.3334V8.93335C21.4334 7.22127 20.0455 5.83335 18.3334 5.83335H14.5667Z" fill="white"/>
<path d="M35.6334 10.4167H33.3334V8.13335C33.3334 7.443 32.7737 6.88335 32.0834 6.88335C31.393 6.88335 30.8334 7.443 30.8334 8.13335V10.4167H28.5667C27.8763 10.4167 27.3167 10.9763 27.3167 11.6667C27.3167 12.357 27.8763 12.9167 28.5667 12.9167H30.85V15.2C30.85 15.8904 31.4097 16.45 32.1 16.45C32.7904 16.45 33.35 15.8904 33.35 15.2V12.9167H35.6334C36.3237 12.9167 36.8834 12.357 36.8834 11.6667C36.8834 10.9763 36.3237 10.4167 35.6334 10.4167Z" fill="white"/>
</svg>
